<svg viewBox="0 0 186 25" xmlns="http://www.w3.org/2000/svg"><g fill="#315efb" fill-rule="evenodd"><g><path d="m74.19 10.968c.081-.887.968-2.581 3.065-2.581 2.339 0 2.742 1.855 2.823 2.581h-5.887m3.145-5.242c-3.952 0-6.613 2.903-6.613 6.613 0 3.71 2.661 6.613 6.694 6.613 4.03 0 5.726-2.823 5.726-2.823l-2.581-1.694c0 0-.887 1.774-3.145 1.774-2.339 0-3.306-2.02-3.306-2.742h9.274c0 0 .081-.565.081-.726v-.403c0-3.79-2.258-6.613-6.129-6.613"/><path d="m95.89 12.339c0 2.097-1.21 3.871-3.548 3.871-2.339 0-3.629-1.935-3.629-3.871 0-1.935 1.29-3.871 3.629-3.871 2.258 0 3.548 1.774 3.548 3.871m-3.145-6.613c-2.258 0-3.548 1.21-3.952 1.694v-1.371h-3.387v18.629h3.468v-7.258c.403.403 1.774 1.532 3.871 1.532 3.226 0 6.21-2.419 6.21-6.613.081-4.435-3.226-6.613-6.21-6.613"/><path d="m21.05 13.387c0 1.694-.968 2.903-2.823 2.903-1.774 0-1.935-1.048-1.935-1.452 0-.968.806-1.532 2.823-1.774.565-.081 1.129-.081 1.694-.081h.242v.403m3.226 2.5v-3.79-.726c-.161-3.952-1.855-5.565-5.403-5.565-2.419 0-4.03.968-4.597 1.371l.968 2.581c0 0 1.452-1.29 3.306-1.29 2.661 0 2.339 2.177 2.339 2.177-.887 0-8.06-.403-8.06 4.274 0 2.581 2.177 4.03 4.516 4.03 2.097 0 3.306-1.048 3.629-1.452 0 .081.081 1.21.081 1.21h3.226c.161 0 0-1.129 0-2.823"/><path d="m34.597 11.371l-4.355-5.242-.081-.081h-2.984v12.661h3.468v-7.339l3.387 4.274.081.081h.887l3.468-4.435v7.419h3.468v-12.661h-2.984l-4.355 5.323"/><path d="m109.52.484l-8.871 24.19h3.629l8.871-24.19h-3.629"/><path d="m8.871 6.371c0 2.097-2.02 2.823-3.387 2.823h-1.774v-5.726h1.774c1.371.081 3.387.806 3.387 2.903m-3.065-5.887h-5.645v18.226h3.629v-6.452h1.935c3.71 0 6.774-1.935 6.774-5.887 0-3.871-3.065-5.887-6.694-5.887"/><path d="m53.952 12.661c0 1.452-.806 3.548-3.145 3.548-2.339 0-3.306-1.855-3.306-3.629 0-1.774.968-3.387 3.306-3.387 2.339 0 3.145 2.02 3.145 3.468m-2.823-6.613c-1.694 0-2.903.806-3.226 1.048.081-.403.484-3.79 5-3.79h2.823l1.048-2.823h-3.79c-5 0-8.871 2.339-8.871 10.484 0 4.435 1.935 8.06 6.613 8.06 4.435 0 6.694-3.226 6.694-6.452 0-4.597-3.468-6.532-6.29-6.532"/><path d="m66.774 18.71h3.71l-4.597-12.661h-3.629l-4.677 12.661h3.79l2.661-8.06h.081l2.661 8.06"/></g><g transform="translate(116.94 7.258)"><path d="m5.323 4.194v-3.71h1.855v9.758h-1.855v-4.194h-3.468v4.194h-1.855v-9.758h1.855v3.71h3.468"/><path d="m18.226 1.774c.968.968 1.452 2.177 1.452 3.548 0 1.452-.484 2.581-1.452 3.548-.968.968-2.097 1.452-3.548 1.452-1.371 0-2.5-.484-3.468-1.452-.968-.968-1.452-2.177-1.452-3.548 0-1.371.484-2.581 1.452-3.548.968-.968 2.097-1.452 3.468-1.452 1.452 0 2.581.484 3.548 1.452m-5.645 1.29c-.565.645-.887 1.371-.887 2.258 0 .887.323 1.613.887 2.258.565.645 1.29.887 2.177.887.887 0 1.613-.323 2.177-.887.565-.645.887-1.371.887-2.258 0-.887-.323-1.613-.887-2.258-.565-.645-1.29-.968-2.177-.968-.887.081-1.613.403-2.177.968"/><path d="m22.258.484h2.903c1.048 0 1.855.242 2.419.806.565.565.806 1.21.806 2.02 0 .806-.323 1.371-.968 1.855.806.403 1.29 1.29 1.29 2.177 0 .887-.323 1.613-.968 2.177-.645.484-1.371.806-2.339.806h-3.226v-9.839h.081m1.855 1.774v2.097h1.129c.806 0 1.29-.323 1.29-1.048 0-.645-.565-1.048-1.29-1.048h-1.129m0 3.952v2.177h1.29c.806 0 1.452-.403 1.452-1.129 0-.726-.565-1.048-1.452-1.048h-1.29"/><path d="m39.35 1.774c.968.968 1.452 2.177 1.452 3.548 0 1.452-.484 2.581-1.452 3.548-.968.968-2.097 1.452-3.548 1.452-1.371 0-2.5-.484-3.468-1.452-.968-.968-1.452-2.177-1.452-3.548 0-1.371.484-2.581 1.452-3.548.968-.968 2.097-1.452 3.468-1.452 1.371 0 2.581.484 3.548 1.452m-5.726 1.29c-.565.645-.887 1.371-.887 2.258 0 .887.323 1.613.887 2.258.565.645 1.29.887 2.177.887.887 0 1.613-.323 2.177-.887.565-.645.887-1.371.887-2.258 0-.887-.323-1.613-.887-2.258-.565-.645-1.29-.968-2.177-.968-.887.081-1.613.403-2.177.968"/><path d="m50.08 9.839c-.806.403-1.532.565-2.258.565-1.371 0-2.5-.484-3.548-1.452-.968-.968-1.452-2.177-1.452-3.548 0-1.452.484-2.581 1.452-3.548.968-.968 2.177-1.452 3.548-1.452.726 0 1.452.161 2.258.565v2.177c-.806-.645-1.532-.887-2.258-.887-.887 0-1.613.323-2.177.968-.565.645-.887 1.371-.887 2.258 0 .887.323 1.613.887 2.258.565.645 1.29.968 2.177.968.726 0 1.452-.323 2.258-.887v2.02"/><path d="m56.05 2.339v7.903h-1.855v-7.903h-2.258v-1.855h6.371v1.855h-2.258"/><path d="m60.48 10.242v-9.758h1.855v4.758c0 .323 0 .806-.081 1.29h.081c.242-.403.484-.806.887-1.29l3.468-4.758h1.532v9.758h-1.855v-5c0 0 0-.484.081-1.29h-.081c-.242.484-.565.887-.887 1.29l-3.629 5h-1.371"/></g></g></svg>